# xmcd
#
# Track frame offsets:
#	150
#	19538
#	37063
#
# Disc length: 793 seconds
#
# Revision: 0
# Processed by: cddbd v1.5.2PL0 Copyright (c) Steve Scherf et al.
# Submitted via: audiograbber 1.83.01
#
DISCID=1b031703
DTITLE=Domenick Swentosky - Walking Bob Dylan
DYEAR=2007
DGENRE=Acoustic Rock
TTITLE0=Walking Bob Dylan
TTITLE1=Liar
TTITLE2=All These Things That I've Done
EXTD=www.greytime.com
EXTT0=
EXTT1=
EXTT2=
PLAYORDER=
